<!-- Generated by IcoMoon.io -->
<svg version="1.1" xmlns="http://www.w3.org/2000/svg" width="54" height="32" viewBox="0 0 54 32">
<title>arrow-1</title>
<path d="M52 14c1.105 0 2 0.895 2 2s-0.895 2-2 2v0-4zM0.586 17.414c-0.362-0.362-0.586-0.862-0.586-1.414s0.224-1.052 0.586-1.414l12.728-12.728c0.357-0.335 0.838-0.541 1.368-0.541 1.105 0 2 0.895 2 2 0 0.53-0.206 1.012-0.543 1.37l0.001-0.001-11.312 11.314 11.314 11.314c0.377 0.364 0.611 0.874 0.611 1.439 0 1.105-0.895 2-2 2-0.565 0-1.074-0.234-1.438-0.61l-0.001-0.001-12.728-12.728zM52 18h-50v-4h50v4z"></path>
</svg>
