<!-- Generated by IcoMoon.io -->
<svg version="1.1" xmlns="http://www.w3.org/2000/svg" width="39" height="32" viewBox="0 0 39 32">
<title>audio-book</title>
<path d="M3.047 29.453h12.23c0.618 1.262 1.893 2.115 3.367 2.115 0.005 0 0.009 0 0.014-0h0.773c0.004 0 0.009 0 0.014 0 1.474 0 2.748-0.854 3.356-2.093l0.010-0.022h12.237c1.262-0.001 2.285-1.024 2.286-2.286v-21.905c-0.002-1.262-1.024-2.284-2.286-2.285h-1.234v-1.021c-0.001-0.841-0.683-1.523-1.524-1.523h-26.491c-0.841 0.001-1.523 0.682-1.524 1.523v1.021h-1.227c-1.262 0.001-2.285 1.023-2.287 2.285v21.905c0.001 1.262 1.024 2.285 2.287 2.286h0zM32.287 24.751h-12.477v-17.705c2.885 0.377 5.121 2.845 5.121 5.831v0.687l-0.181-0.040c-0.049-0.011-0.106-0.018-0.164-0.018-0.363 0-0.666 0.253-0.743 0.593l-0.001 0.005-1.213 5.52c-0.011 0.049-0.018 0.105-0.018 0.163 0 0.362 0.253 0.666 0.593 0.743l0.005 0.001 2.621 0.578c0.136 0.029 0.273 0.043 0.411 0.043 0.921 0 1.707-0.631 1.907-1.535l0.702-3.192c0.029-0.125 0.045-0.269 0.045-0.417 0-0.929-0.648-1.706-1.517-1.904l-0.013-0.003-0.912-0.201v-1.023c0-3.827-2.917-6.987-6.645-7.371v-3.551h12.48l-0.001 22.796zM25.167 15.177l1.871 0.412c0.233 0.052 0.377 0.275 0.325 0.508l-0.702 3.191c-0.051 0.231-0.306 0.374-0.507 0.331l-1.873-0.413 0.886-4.029zM5.799 1.955h12.487v3.55c-3.731 0.381-6.651 3.542-6.651 7.372v1.022l-0.913 0.202c-0.517 0.115-0.947 0.425-1.218 0.846l-0.005 0.008c-0.193 0.295-0.307 0.657-0.307 1.045 0 0.15 0.017 0.297 0.050 0.437l-0.003-0.013 0.7 3.189c0.199 0.887 0.98 1.539 1.913 1.539 0.146 0 0.288-0.016 0.425-0.046l-0.013 0.002 2.61-0.577c0.344-0.078 0.598-0.381 0.598-0.744 0-0.058-0.006-0.114-0.018-0.168l0.001 0.005-1.213-5.519c-0.077-0.345-0.381-0.598-0.743-0.598-0.058 0-0.115 0.007-0.17 0.019l0.005-0.001-0.174 0.038v-0.685c0-2.988 2.24-5.458 5.128-5.832v17.707h-12.488v-22.797zM12.916 15.177l0.887 4.029-1.863 0.411c-0.027 0.006-0.058 0.009-0.090 0.009-0.205 0-0.377-0.143-0.421-0.334l-0.001-0.003-0.702-3.196c-0.007-0.028-0.011-0.060-0.011-0.094 0-0.084 0.025-0.161 0.067-0.227l-0.001 0.002c0.061-0.094 0.155-0.161 0.265-0.186l0.003-0.001 1.867-0.412zM2.286 5.262c0-0.42 0.341-0.762 0.761-0.762h1.227v20.251c0.001 0.842 0.683 1.524 1.525 1.524h26.491c0.841-0.001 1.523-0.682 1.524-1.523v-20.252h1.234c0.421 0 0.762 0.342 0.762 0.762v21.905c0 0.42-0.341 0.762-0.762 0.762h-12.754c-0.335 0-0.631 0.219-0.729 0.539-0.285 0.92-1.129 1.577-2.126 1.577-0.003 0-0.006 0-0.009-0h-0.772c-0.001 0-0.002 0-0.004 0-1.002 0-1.849-0.661-2.13-1.571l-0.004-0.016c-0.101-0.31-0.388-0.529-0.725-0.529h-12.747c-0.421 0-0.762-0.342-0.762-0.762v-21.905z"></path>
</svg>
