<!-- Generated by IcoMoon.io -->
<svg version="1.1" xmlns="http://www.w3.org/2000/svg" width="40" height="32" viewBox="0 0 40 32">
<title>Group-11</title>
<path d="M34.458 1.514c-1.485 0.664-2.907 1.475-4.266 2.379-2.731 1.797-5.227 3.936-7.568 6.218-2.291 2.256-4.444 4.63-6.458 7.12l-0.125 0.16c-0.515 0.637-2.822 3.472-2.822 3.472l-9.597-14.382-3.622 10.043 12.976 15.477c1.261-2.552 2.474-5.070 3.664-7.258 0.294-0.557 0.605-1.080 0.901-1.613 0 0 1.523-2.677 1.923-3.35 1.602-2.698 3.333-5.325 5.238-7.821 1.909-2.491 3.984-4.87 6.336-6.96 1.117-1.018 2.342-1.964 3.64-2.807l0.11-0.067c1.331-0.848 2.747-1.59 4.261-2.125-1.574 0.31-3.112 0.848-4.592 1.514z"></path>
</svg>
