<!-- Generated by IcoMoon.io -->
<svg version="1.1" xmlns="http://www.w3.org/2000/svg" width="27" height="32" viewBox="0 0 27 32">
<title>insurance</title>
<path d="M0.528 13.797c0 0.348-0.528 0.348-0.528 0 0-7.403 6.004-13.407 13.407-13.407 7.406 0 13.406 6.004 13.406 13.407 0 0.348-0.525 0.348-0.525 0 0-5.005-8.222-5.008-8.222 0 0 0.348-0.542 0.348-0.542 0 0-4.991-8.235-4.991-8.235 0 0 0.348-0.542 0.348-0.542 0 0-4.982-8.219-5.017-8.219 0zM8.795 11.854c0.143-2.88 0.595-5.463 1.253-7.435 0.525-1.566 1.19-2.757 1.943-3.424-5.653 0.617-10.229 4.902-11.252 10.46 1.947-2.807 6.441-2.583 8.055 0.398zM17.484 11.724c-0.146-2.769-0.585-5.247-1.219-7.137-1.633-4.89-4.082-4.89-5.715 0-0.633 1.89-1.069 4.368-1.218 7.137 1.756-2.985 6.396-2.985 8.153 0zM26.073 11.455c-1.019-5.558-5.596-9.844-11.252-10.46 0.757 0.667 1.418 1.858 1.943 3.424 0.659 1.972 1.111 4.555 1.253 7.435 1.623-2.997 6.131-3.175 8.055-0.399zM11.647 19.931v-2.722c-0.491 0.326-0.877 0.83-0.877 1.444 0 0.598 0.392 0.994 0.877 1.278zM12.176 20.777c-0.94-0.43-1.93-0.933-1.93-2.124 0-1.229 0.933-1.842 1.93-2.302v4.425zM15.166 24.039v2.754c0.497-0.329 0.887-0.835 0.887-1.449 0-0.605-0.399-1.013-0.887-1.304zM14.641 23.191c0.944 0.437 1.94 0.956 1.94 2.153 0 1.231-0.94 1.845-1.94 2.301v-4.453z"></path>
<path d="M15.166 14.111c2.165 0.499 4.39 2.12 4.39 4.541 0 2.074-3.504 1.998-3.504 0 0-0.617-0.389-1.124-0.886-1.449v3.874c2.003 0.656 4.396 1.829 4.396 4.266 0 2.425-2.224 4.042-4.396 4.539-0.009 2.308-3.512 2.305-3.519-0.003-1.235-0.285-2.307-0.861-3.083-1.623-0.813-0.804-1.294-1.814-1.294-2.911 0-2.043 3.5-2.043 3.5 0 0 0.61 0.386 1.114 0.877 1.439v-3.871c-1.988-0.642-4.393-1.851-4.393-4.266 0-2.424 2.225-4.041 4.393-4.539 0.009-2.307 3.513-2.304 3.52 0.003zM12.176 14.117v0.421c-2.061 0.408-4.396 1.728-4.396 4.108 0 2.288 2.563 3.314 4.396 3.881v5.115c-0.991-0.453-1.93-1.063-1.93-2.298 0-1.348-2.451-1.348-2.451 0 0 0.952 0.425 1.833 1.139 2.535 0.909 0.899 2.011 1.327 3.241 1.57v0.424c0 1.623 2.466 1.623 2.466 0v-0.421c2.066-0.411 4.393-1.73 4.393-4.108 0-2.31-2.558-3.304-4.393-3.884v-5.111c0.994 0.453 1.94 1.064 1.94 2.304 0 1.314 2.447 1.367 2.447 0 0-2.377-2.323-3.7-4.386-4.111v-0.425c0-1.623-2.466-1.623-2.466 0z"></path>
</svg>
