<!-- Generated by IcoMoon.io -->
<svg version="1.1" xmlns="http://www.w3.org/2000/svg" width="33" height="32" viewBox="0 0 33 32">
<title>mobile-learning</title>
<path d="M30.175-0.128h-15.746c-1.026 0.001-1.858 0.833-1.859 1.859v6.519l-11.699 4.909c-0.139 0.059-0.235 0.194-0.235 0.352 0 0.139 0.074 0.26 0.185 0.326l0.002 0.001 1.492 0.893v9.516c-0.77 0.181-1.334 0.861-1.335 1.673v0.917c0 0.211 0.17 0.381 0.381 0.381h2.671c0.211 0 0.381-0.171 0.381-0.381v0-0.917c0-0.816-0.573-1.498-1.337-1.673v-9.060l1.18 0.706c-0.037 0.272-0.005-0.474-0.017 4.43 0 1.612 4.129 2.476 8.33 2.525v7.425c0 1.025 0.832 1.856 1.857 1.856 0 0 0.001 0 0.001 0h15.745c1.025-0.001 1.857-0.832 1.857-1.857v-0c0 0.051-0.002-1.573 0-28.539 0-1.012-0.836-1.859-1.856-1.859zM3.651 25.918v0.537h-1.908v-0.537c0-0.528 0.427-0.957 0.952-0.957 0.528 0 0.957 0.43 0.957 0.957zM30.175 31.364h-15.746c-0.378 0-0.711-0.191-0.909-0.481-0.117-0.171-0.187-0.383-0.187-0.61 0-0.001 0-0.001 0-0.002v0-2.574h17.934v2.575c0 0.596-0.497 1.092-1.092 1.092zM31.267 26.935h-17.935v-4.086c2.051-0.023 8.335-0.475 8.335-2.527-0.003-3.080 0.005-4.33-0.010-4.436l3.421-2.049c0.111-0.068 0.184-0.189 0.184-0.326 0-0.157-0.095-0.292-0.23-0.35l-0.002-0.001-11.698-4.91v-3.182h17.935v21.868zM12.951 17.792c-2.113 0-6.182 0.273-7.949 1.427 0.011-3.53-0.123-3.3 0.312-3.6 1.098-0.808 4.239-1.373 7.637-1.373 1.482 0 7.954 0.407 7.954 1.777v3.196c-1.784-1.165-5.832-1.428-7.954-1.428zM13.332 1.731c0.001-0.605 0.491-1.095 1.096-1.095 0 0 0 0 0 0h15.745c0.605 0 1.093 0.498 1.093 1.095v2.574h-17.934v-2.574zM12.951 8.915l11.090 4.655-2.748 1.644c-1.461-1.449-6.294-1.729-8.342-1.729-2.051 0-6.884 0.281-8.342 1.729l-2.749-1.644 11.091-4.655zM5.002 20.321c0-0.616 2.73-1.768 7.949-1.768 5.222 0 7.954 1.151 7.954 1.767s-2.732 1.768-7.954 1.768c-5.219 0-7.949-1.151-7.949-1.768z"></path>
<path d="M22.301 28.271c-0.694 0-1.26 0.565-1.26 1.26s0.565 1.26 1.26 1.26 1.26-0.565 1.26-1.26c0-0.694-0.565-1.26-1.26-1.26zM22.301 30.030c-0.264-0.014-0.473-0.232-0.473-0.498s0.209-0.484 0.472-0.498l0.001-0c0.275 0 0.498 0.223 0.498 0.498s-0.223 0.498-0.498 0.498v0zM23.755 2.090h-2.907v0.762h2.907v-0.762z"></path>
</svg>
