<!-- Generated by IcoMoon.io -->
<svg version="1.1" xmlns="http://www.w3.org/2000/svg" width="33" height="32" viewBox="0 0 33 32">
<title>telephone</title>
<path d="M4.818 0.002c-0.572 0.026-1.080 0.279-1.439 0.672l-0.001 0.002-2.685 2.953c0.004-0.009-0.011-0.008-0.086 0.099-0.039 0.053-0.071 0.113-0.092 0.179l-0.001 0.005c-1.092 3.48-0.36 7.308 1.423 10.948 1.785 3.641 4.63 7.125 7.897 9.984 3.266 2.859 6.953 5.096 10.467 6.206 3.516 1.109 6.923 1.095 9.449-0.737 0.029-0.021 0.054-0.043 0.077-0.067l0-0c0.066-0.066 0.068-0.075 0.057-0.065l2.681-2.95c0.333-0.369 0.537-0.86 0.537-1.399 0-0.608-0.26-1.156-0.675-1.538l-6.337-5.765c-0.369-0.334-0.86-0.538-1.4-0.538-0.608 0-1.156 0.26-1.538 0.674l-2.868 3.154c-2.328-0.673-4.318-1.816-6.231-3.556-1.913-1.741-3.24-3.615-4.13-5.869l2.866-3.153c0.334-0.369 0.538-0.861 0.538-1.4 0-0.608-0.259-1.155-0.674-1.537l-6.339-5.766c-0.367-0.334-0.856-0.538-1.394-0.538-0.037 0-0.074 0.001-0.11 0.003l0.005-0zM4.877 1.295c0.009-0 0.019-0.001 0.030-0.001 0.205 0 0.392 0.080 0.53 0.21l-0-0 6.337 5.763c0.16 0.14 0.26 0.345 0.26 0.573 0 0.203-0.079 0.387-0.209 0.524l0-0-3.169 3.482c-0.104 0.115-0.168 0.268-0.168 0.436 0 0.081 0.015 0.158 0.041 0.229l-0.001-0.005c0.961 2.624 2.513 4.778 4.647 6.719 2.135 1.942 4.423 3.283 7.126 3.992 0.050 0.014 0.107 0.021 0.166 0.021 0.191 0 0.362-0.082 0.482-0.213l0-0.001 3.169-3.482c0.14-0.16 0.345-0.26 0.573-0.26 0.203 0 0.387 0.079 0.524 0.209l6.338 5.763c0.16 0.14 0.26 0.345 0.26 0.573 0 0.203-0.080 0.388-0.209 0.524l0-0-2.649 2.913c-2.072 1.486-4.992 1.57-8.262 0.537-3.283-1.036-6.846-3.182-9.999-5.942s-5.898-6.131-7.585-9.574c-1.67-3.407-2.275-6.852-1.357-9.888l2.589-2.845c0.133-0.15 0.323-0.247 0.535-0.259l0.002-0z"></path>
</svg>
