<!-- Generated by IcoMoon.io -->
<svg version="1.1" xmlns="http://www.w3.org/2000/svg" width="32" height="32" viewBox="0 0 32 32">
<title>vk</title>
<path d="M27.541 18.46c1.060 1.037 2.181 2.012 3.133 3.152 0.421 0.508 0.819 1.030 1.123 1.619 0.432 0.836 0.042 1.757-0.709 1.807l-4.661-0.002c-1.202 0.099-2.161-0.384-2.969-1.206-0.645-0.658-1.243-1.358-1.863-2.037-0.246-0.281-0.521-0.527-0.824-0.736l-0.015-0.010c-0.637-0.413-1.189-0.287-1.553 0.377-0.37 0.676-0.454 1.423-0.491 2.176-0.050 1.098-0.382 1.387-1.485 1.436-2.356 0.112-4.593-0.245-6.67-1.434-1.833-1.049-3.253-2.528-4.489-4.203-2.407-3.262-4.251-6.845-5.907-10.529-0.373-0.831-0.1-1.276 0.815-1.292 1.521-0.030 3.042-0.028 4.564-0.002 0.619 0.009 1.027 0.363 1.266 0.947 0.822 2.023 1.829 3.948 3.093 5.732 0.336 0.475 0.679 0.949 1.168 1.284 0.541 0.37 0.953 0.247 1.206-0.354 0.162-0.382 0.233-0.794 0.269-1.202 0.121-1.408 0.137-2.812-0.075-4.213-0.13-0.876-0.623-1.442-1.495-1.609-0.446-0.084-0.38-0.25-0.164-0.505 0.374-0.437 0.727-0.711 1.429-0.711h5.269c0.829 0.164 1.013 0.537 1.127 1.371l0.004 5.853c-0.010 0.323 0.161 1.282 0.743 1.495 0.465 0.153 0.772-0.22 1.052-0.515 1.262-1.339 2.162-2.922 2.965-4.56 0.357-0.72 0.665-1.469 0.962-2.215 0.221-0.555 0.565-0.828 1.191-0.816l5.070 0.004c0.151 0 0.303 0.002 0.448 0.028 0.855 0.145 1.089 0.512 0.826 1.347-0.416 1.309-1.225 2.4-2.016 3.495-0.846 1.17-1.749 2.301-2.589 3.477-0.77 1.075-0.709 1.617 0.247 2.55z"></path>
</svg>
